<?xml version="1.0" standalone="no"?>
<!DOCTYPE svg PUBLIC "-//W3C//DTD SVG 20010904//EN"
 "http://www.w3.org/TR/2001/REC-SVG-20010904/DTD/svg10.dtd">
<svg version="1.0" xmlns="http://www.w3.org/2000/svg"
 width="865.000000pt" height="865.000000pt" viewBox="0 0 865.000000 865.000000"
 preserveAspectRatio="xMidYMid meet">

<g transform="translate(0.000000,865.000000) scale(0.100000,-0.100000)"
fill="#000000" stroke="none">
<path d="M4000 7275 c-52 -7 -135 -16 -185 -20 -49 -3 -121 -12 -160 -20 -38
-8 -95 -17 -125 -20 -30 -4 -72 -11 -92 -16 -20 -5 -69 -16 -110 -24 -121 -24
-232 -50 -243 -57 -5 -3 -38 -12 -73 -18 -34 -7 -65 -17 -68 -21 -3 -5 -15 -9
-27 -9 -12 -1 -40 -8 -62 -16 -22 -8 -60 -22 -85 -29 -86 -27 -145 -48 -157
-58 -21 -16 -15 -34 15 -41 15 -4 41 -13 57 -20 80 -37 125 -56 185 -79 36
-14 79 -33 95 -41 17 -9 35 -16 42 -16 6 0 24 -6 40 -14 41 -20 89 -41 163
-71 36 -15 78 -33 93 -41 16 -8 33 -14 39 -14 6 0 29 -8 52 -19 23 -10 66 -29
96 -41 30 -12 73 -31 96 -41 23 -11 48 -19 56 -19 8 0 18 -4 24 -9 5 -5 41
-21 79 -36 39 -15 89 -36 112 -46 23 -11 48 -19 55 -19 8 0 23 -7 35 -15 19
-14 90 -16 500 -19 l478 -3 55 24 c30 14 82 38 115 53 33 15 87 40 120 55 33
15 80 36 105 47 25 11 72 33 105 48 56 26 115 53 225 102 72 32 100 45 190 86
47 22 108 49 135 62 28 12 66 29 85 38 19 8 51 23 71 34 20 10 44 18 53 18 10
0 16 9 16 24 0 19 -8 26 -37 34 -21 6 -76 24 -123 40 -127 44 -211 70 -250 77
-19 4 -39 10 -45 14 -11 7 -125 33 -245 56 -41 9 -88 19 -105 25 -16 5 -57 12
-90 15 -33 4 -73 11 -90 16 -16 5 -100 16 -185 24 -85 8 -182 19 -215 25 -88
15 -699 11 -815 -5z"/>
<path d="M6288 6918 c-6 -16 9 -775 20 -1005 l8 -162 79 -78 c122 -119 175
-184 268 -328 44 -69 52 -82 82 -145 50 -103 77 -168 92 -225 2 -11 13 -49 23
-85 57 -196 39 -538 -36 -708 -7 -18 -14 -38 -14 -45 0 -16 -117 -247 -136
-268 -8 -8 -14 -19 -14 -23 0 -5 -10 -21 -22 -36 -13 -15 -30 -37 -38 -49 -22
-33 -60 -79 -107 -130 -23 -25 -43 -51 -43 -56 0 -6 -9 -15 -19 -20 -11 -6
-77 -56 -148 -113 -159 -127 -215 -167 -283 -202 -14 -7 -27 -16 -30 -20 -6
-8 -26 -19 -165 -89 -82 -41 -103 -56 -91 -63 9 -5 35 -5 63 1 27 5 77 15 113
21 36 6 104 20 152 31 48 10 95 19 105 19 10 0 38 7 63 15 41 14 97 29 205 56
22 5 54 16 72 24 17 8 37 15 45 15 36 0 388 160 513 233 250 148 475 340 629
537 36 47 70 90 75 96 4 5 14 21 21 35 7 13 16 26 20 29 9 7 95 174 146 285
14 30 51 150 73 235 32 124 40 499 12 574 -6 15 -18 56 -25 90 -30 134 -87
258 -181 401 -64 97 -71 107 -96 135 -9 10 -21 24 -25 33 -31 53 -261 291
-369 382 -33 27 -65 54 -71 60 -6 5 -23 19 -38 30 -16 11 -35 26 -43 34 -8 8
-29 24 -46 36 -192 132 -258 174 -401 253 -107 61 -296 152 -313 152 -6 0 -16
6 -22 14 -6 7 -24 16 -39 19 -15 3 -34 8 -43 12 -9 3 -19 0 -21 -7z"/>
<path d="M2420 6894 c-14 -8 -36 -19 -50 -24 -14 -6 -32 -14 -40 -20 -8 -5
-40 -21 -70 -35 -30 -14 -62 -30 -70 -35 -8 -5 -64 -37 -124 -71 -113 -64
-377 -237 -396 -260 -3 -3 -43 -37 -90 -74 -167 -135 -362 -331 -450 -453 -17
-23 -38 -51 -48 -62 -31 -34 -42 -49 -42 -58 0 -4 -9 -17 -19 -29 -17 -18 -32
-42 -107 -171 -47 -81 -74 -135 -74 -147 0 -7 -7 -18 -15 -25 -8 -7 -15 -20
-15 -29 0 -9 -9 -33 -20 -54 -11 -20 -20 -42 -20 -48 0 -6 -7 -25 -15 -42 -33
-70 -89 -304 -100 -413 -9 -92 -6 -408 4 -499 12 -100 39 -231 56 -270 7 -16
16 -47 19 -67 4 -20 13 -50 21 -65 8 -15 15 -34 15 -41 0 -6 9 -29 20 -49 11
-21 20 -45 20 -54 0 -9 7 -22 15 -29 8 -7 15 -18 15 -24 0 -10 27 -63 74 -147
40 -70 90 -154 98 -164 19 -23 64 -84 78 -105 15 -23 60 -81 70 -90 3 -3 28
-32 55 -64 55 -66 186 -199 256 -260 51 -45 260 -211 304 -242 17 -11 54 -37
82 -57 29 -20 56 -37 59 -37 4 0 30 -15 58 -34 85 -56 263 -149 401 -210 33
-15 67 -31 76 -35 8 -5 47 -21 85 -36 38 -14 87 -35 110 -46 23 -10 49 -19 59
-19 9 0 29 -6 43 -14 15 -8 68 -26 117 -41 50 -15 108 -33 130 -40 82 -26 258
-68 376 -90 42 -7 93 -18 115 -23 21 -6 64 -13 94 -16 30 -4 98 -13 150 -21
155 -24 513 -50 690 -50 162 0 517 25 655 45 39 6 119 17 178 25 60 8 112 17
116 19 4 3 41 10 82 17 41 6 81 15 90 20 9 4 47 13 85 19 37 6 73 15 79 20 5
4 28 11 50 15 47 8 156 41 203 61 18 8 40 14 48 14 8 0 36 8 62 19 26 10 74
28 107 41 83 30 152 58 203 81 23 10 63 28 90 40 41 18 94 45 142 71 8 4 26
13 40 18 14 6 43 21 65 35 22 13 54 31 70 39 17 9 39 21 49 28 156 104 239
158 243 158 4 0 185 143 233 185 58 50 313 307 350 352 84 103 150 191 150
203 0 5 4 10 10 10 5 0 17 15 25 33 14 30 74 129 92 152 10 14 83 164 83 172
0 11 -38 0 -51 -14 -13 -16 -108 -102 -223 -204 -103 -90 -322 -248 -416 -300
-19 -11 -66 -37 -105 -59 -64 -36 -201 -104 -300 -149 -92 -42 -289 -115 -405
-151 -186 -57 -254 -75 -355 -95 -38 -8 -88 -18 -110 -24 -72 -18 -271 -51
-306 -51 -19 0 -70 -8 -114 -17 -69 -15 -150 -17 -585 -17 -440 -1 -517 1
-598 17 -50 9 -104 17 -120 17 -27 0 -219 32 -302 51 -25 6 -77 16 -117 24
-40 8 -81 19 -92 24 -11 6 -29 11 -41 11 -11 0 -46 9 -77 20 -32 11 -66 20
-78 20 -11 0 -32 6 -47 14 -15 8 -42 17 -60 21 -18 4 -52 16 -75 26 -23 11
-45 19 -50 19 -4 0 -32 10 -63 21 -52 21 -77 31 -152 63 -48 20 -297 145 -339
170 -126 73 -148 88 -159 101 -7 8 -17 15 -22 15 -19 0 -207 156 -298 249
-155 156 -230 257 -305 411 -64 131 -83 182 -100 275 -7 39 -18 94 -24 124
-14 69 -14 243 0 312 6 30 17 86 24 124 26 139 116 357 192 467 18 26 33 50
33 53 0 16 126 177 192 246 9 9 41 44 72 78 l56 61 0 580 0 580 -27 -1 c-16 0
-39 -7 -53 -15z"/>
<path d="M5884 5506 c-17 -8 -53 -30 -80 -49 -34 -24 -100 -52 -214 -89 -248
-82 -245 -81 -282 -74 -92 20 -115 18 -155 -7 -38 -24 -123 -114 -123 -130 0
-12 -43 -67 -52 -67 -4 0 -8 23 -8 50 0 61 -25 115 -76 164 -44 42 -80 51
-180 43 -153 -13 -245 -124 -187 -224 33 -58 127 -79 192 -42 68 38 68 85 1
119 -49 25 -44 40 15 40 65 0 98 -32 98 -93 -2 -92 -64 -136 -191 -137 -94 0
-115 9 -175 74 l-37 41 -31 -35 c-46 -53 -149 -188 -149 -196 0 -4 -6 -15 -14
-23 -28 -32 -96 -173 -96 -200 0 -15 8 -35 18 -44 35 -32 55 -25 254 87 26 14
54 26 64 26 22 0 14 -32 -36 -135 -60 -127 -69 -147 -80 -195 -91 -366 -111
-578 -63 -657 63 -104 194 -120 281 -33 52 52 63 113 72 395 8 240 15 294 58
460 17 69 26 130 26 197 1 54 4 99 6 101 3 2 41 30 85 62 44 32 82 61 85 64 3
3 16 12 28 19 21 12 23 11 18 -5 -32 -103 -41 -273 -18 -330 23 -53 118 -81
175 -52 27 15 74 66 90 98 21 43 57 60 155 73 119 15 123 11 83 -75 -17 -37
-31 -75 -31 -85 0 -28 -40 -60 -90 -71 -59 -13 -303 -41 -359 -41 -57 0 -158
-27 -193 -52 -59 -42 -20 -128 58 -128 18 0 53 6 76 14 24 8 77 24 118 35 41
11 123 33 182 49 59 16 111 26 116 23 16 -10 -4 -44 -50 -87 -23 -23 -137
-113 -253 -200 -250 -189 -295 -234 -339 -338 -21 -50 -20 -79 3 -125 24 -46
36 -57 92 -76 36 -13 51 -14 87 -4 60 16 121 79 151 154 42 105 113 248 150
305 20 30 38 60 41 65 3 6 18 29 34 53 48 70 54 59 59 -90 4 -170 38 -347 80
-425 30 -56 65 -73 151 -73 l77 0 42 43 c56 59 67 102 78 332 5 105 11 196 14
203 11 29 46 9 105 -58 33 -39 60 -74 60 -78 0 -4 9 -13 21 -20 19 -12 23 -11
37 9 76 109 233 130 320 43 31 -31 34 -39 29 -74 -7 -54 -38 -79 -99 -80 -36
0 -50 4 -57 19 -8 15 -7 20 5 25 9 3 20 3 25 0 6 -3 21 -3 35 0 19 5 24 13 24
37 0 26 -6 33 -46 51 -41 18 -51 19 -85 8 -84 -28 -116 -105 -70 -169 31 -43
74 -61 147 -61 156 0 280 144 217 252 -18 30 -118 98 -145 98 -8 0 -18 4 -24
9 -5 5 -63 23 -129 39 -66 17 -147 40 -180 51 -33 11 -85 29 -115 39 l-55 18
-3 81 c-3 94 1 99 92 113 79 12 195 39 217 50 15 9 17 15 9 30 -9 17 -21 20
-79 20 -38 0 -105 -7 -148 -15 -113 -22 -111 -22 -139 40 -15 33 -41 68 -65
87 -49 39 -49 55 -1 63 20 3 53 10 73 15 69 19 140 9 206 -28 35 -19 120 -15
162 9 88 49 131 170 131 365 0 113 -2 128 -26 179 -31 64 -99 130 -145 139
-51 10 -122 6 -155 -8z m-105 -278 c0 -142 -11 -254 -26 -269 -11 -11 -114
-27 -298 -49 -44 -5 -95 -12 -112 -16 -52 -10 -52 -13 2 231 8 33 17 72 20 86
8 29 52 58 155 101 55 23 80 27 163 27 l97 1 -1 -112z"/>
<path d="M3245 5160 c-214 -28 -348 -73 -485 -163 -103 -67 -219 -195 -264
-292 -11 -22 -23 -48 -27 -57 -22 -44 -51 -283 -43 -353 26 -237 119 -362 360
-487 130 -67 230 -84 367 -63 127 20 250 67 347 135 35 24 98 50 124 50 11 0
45 -9 74 -20 83 -32 132 -24 132 22 0 22 -14 47 -58 107 -34 47 -36 76 -8 111
6 8 20 33 30 55 11 22 24 49 29 60 15 30 37 153 37 210 0 58 -22 171 -45 234
-15 41 -15 51 0 115 22 101 8 162 -55 226 -46 48 -78 66 -160 95 -55 20 -255
28 -355 15z m86 -386 c30 -9 63 -20 74 -24 24 -10 92 -39 120 -50 11 -5 41
-18 68 -30 l47 -20 0 -60 c0 -46 -8 -76 -34 -134 -19 -42 -39 -76 -43 -76 -5
0 -24 11 -44 24 -147 100 -270 101 -320 4 -29 -56 -24 -96 21 -193 32 -69 32
-75 -5 -91 -49 -20 -140 -18 -204 6 -146 53 -202 143 -189 304 15 176 212 354
394 356 34 0 86 -7 115 -16z"/>
</g>
</svg>
